<?xml version="1.0" standalone="no"?>
<!DOCTYPE svg PUBLIC "-//W3C//DTD SVG 20010904//EN"
 "http://www.w3.org/TR/2001/REC-SVG-20010904/DTD/svg10.dtd">
<svg version="1.0" xmlns="http://www.w3.org/2000/svg"
 width="260.000000pt" height="260.000000pt" viewBox="0 0 260.000000 260.000000"
 preserveAspectRatio="xMidYMid meet">
<metadata>
Created by potrace 1.14, written by Peter Selinger 2001-2017
</metadata>
<g transform="translate(0.000000,260.000000) scale(0.100000,-0.100000)"
fill="#000000" stroke="none">
<path d="M1064 2438 c3 -10 1 -18 -4 -18 -6 0 -10 -8 -10 -17 0 -11 3 -14 8
-7 4 6 15 10 24 9 10 -2 17 0 17 3 -3 19 3 22 21 12 22 -12 25 -4 10 20 -9 13
-10 13 -10 0 0 -13 -1 -13 -10 0 -9 13 -10 13 -10 0 0 -13 -1 -13 -10 0 -9 13
-10 13 -10 0 0 -13 -2 -13 -11 0 -9 13 -10 12 -5 -2z"/>
<path d="M1140 2440 c0 -5 8 -14 19 -19 10 -6 21 -18 25 -28 5 -16 5 -16 -8 1
-8 10 -21 16 -28 13 -7 -2 -21 0 -30 5 -14 7 -16 5 -11 -8 4 -12 2 -15 -8 -12
-8 3 -22 1 -31 -3 -10 -6 -19 -5 -23 1 -4 6 -11 8 -16 5 -5 -4 -9 -1 -9 4 0 6
-5 11 -11 11 -5 0 -7 -5 -4 -10 3 -6 -1 -13 -9 -16 -9 -3 -14 -10 -11 -14 3
-5 1 -11 -4 -14 -11 -7 -9 13 3 32 4 7 5 16 2 19 -3 4 -6 1 -6 -5 0 -7 -5 -12
-11 -12 -5 0 -7 6 -3 13 4 6 -1 4 -12 -5 -16 -14 -23 -15 -34 -5 -12 10 -12 9
-1 -5 7 -10 17 -16 21 -13 5 3 11 1 15 -4 6 -10 -27 -7 -44 3 -5 3 -11 -1 -15
-9 -3 -8 -11 -15 -18 -15 -9 0 -9 3 0 12 7 7 12 16 12 21 0 5 -7 1 -16 -7 -8
-9 -20 -14 -25 -11 -5 4 -9 -1 -9 -10 0 -9 -4 -14 -10 -10 -5 3 -8 11 -6 18 1
7 1 9 -1 4 -3 -4 -10 -4 -16 0 -7 4 -6 -1 2 -10 12 -15 11 -17 -3 -17 -9 0
-16 -5 -16 -11 0 -6 9 -8 23 -4 18 5 19 4 6 -4 -9 -6 -27 -12 -39 -14 -13 -2
-29 -12 -36 -22 -10 -14 -14 -15 -14 -4 -1 9 -7 6 -20 -10 -11 -13 -20 -20
-20 -15 0 4 7 15 16 25 12 13 12 19 3 25 -8 5 -10 3 -4 -6 6 -10 4 -12 -8 -7
-9 3 -19 2 -22 -3 -3 -4 -16 -7 -30 -6 -13 2 -22 -1 -19 -5 3 -5 15 -7 28 -5
14 3 23 -1 23 -9 0 -8 -7 -11 -16 -7 -14 5 -14 4 -1 -13 12 -15 8 -14 -20 5
-19 13 -29 17 -22 10 21 -24 13 -35 -23 -34 -23 1 -33 -2 -28 -9 4 -6 0 -8
-10 -4 -11 4 -14 2 -11 -8 5 -12 10 -12 30 2 20 12 28 13 37 4 9 -10 8 -11 -5
-6 -11 4 -18 2 -18 -5 0 -6 -4 -9 -9 -5 -5 3 -12 1 -16 -4 -3 -5 -14 -8 -24
-6 -15 3 -18 -2 -15 -28 l3 -32 -15 25 -14 25 2 -25 c2 -14 -1 -25 -7 -25 -17
0 -36 -16 -30 -25 3 -5 0 -12 -6 -16 -8 -4 -9 -3 -5 4 10 17 -3 15 -20 -3 -11
-11 -21 -12 -40 -5 -17 7 -23 7 -19 0 3 -6 12 -10 20 -10 8 0 17 -4 20 -10 4
-6 -1 -7 -11 -3 -13 5 -15 3 -9 -8 8 -12 6 -12 -8 0 -15 12 -17 12 -11 -4 6
-14 4 -16 -7 -10 -11 7 -11 5 1 -10 13 -17 13 -18 -1 -13 -9 4 -25 -5 -40 -20
-13 -14 -19 -23 -13 -19 12 7 29 -21 19 -31 -3 -3 -5 0 -5 7 0 7 -6 11 -14 8
-7 -3 -19 0 -25 6 -8 8 -11 8 -11 -1 0 -7 5 -12 11 -12 5 0 7 -6 3 -12 -6 -10
-5 -10 8 0 13 10 15 9 10 -14 -2 -14 -7 -22 -11 -17 -3 5 -15 13 -26 17 -18 7
-18 5 3 -14 12 -11 22 -26 22 -32 0 -7 -7 -3 -16 8 -15 19 -15 18 -11 -3 3
-13 0 -26 -5 -30 -6 -3 -8 -2 -5 3 3 6 -3 15 -13 21 -21 14 -22 2 -2 -34 11
-19 10 -22 -3 -17 -8 4 -15 11 -15 17 0 18 -11 0 -16 -27 -2 -14 0 -26 5 -26
5 0 9 -9 8 -20 -1 -11 -5 -20 -10 -20 -5 0 -7 6 -4 13 3 8 -1 14 -8 14 -8 0
-11 -7 -7 -16 5 -14 3 -14 -11 -2 -9 7 -17 9 -17 4 0 -6 10 -15 23 -21 14 -7
16 -11 7 -11 -13 -1 -13 -2 0 -12 13 -9 13 -10 0 -6 -8 2 -14 9 -13 15 3 12
-23 10 -34 -3 -5 -4 -2 -5 6 0 11 6 13 4 8 -9 -4 -10 -3 -15 3 -11 5 3 7 -1 4
-9 -3 -9 -10 -14 -16 -13 -6 1 -12 -6 -13 -16 -2 -9 1 -15 6 -11 5 3 7 10 4
15 -10 15 2 10 16 -8 12 -14 12 -16 0 -8 -10 6 -13 4 -9 -6 3 -8 0 -23 -8 -33
-7 -11 -11 -22 -8 -27 2 -4 -10 -4 -27 1 -18 5 -29 7 -26 3 4 -3 -1 -12 -10
-18 -15 -11 -16 -15 -3 -31 9 -11 10 -15 3 -10 -10 5 -13 -12 -13 -74 0 -62 3
-79 12 -74 10 6 10 4 0 -8 -17 -21 -16 -328 1 -328 8 0 7 -3 -1 -9 -15 -9 -13
-42 3 -53 7 -5 7 -10 0 -15 -21 -17 -14 -31 13 -27 16 3 36 -2 47 -11 16 -12
17 -14 2 -9 -12 4 -17 1 -17 -11 0 -10 -5 -14 -13 -9 -6 4 -9 3 -4 -1 4 -5 17
-10 30 -12 12 -2 26 -8 32 -14 7 -7 5 -8 -6 -4 -27 10 -33 -15 -10 -38 l21
-21 -23 -21 c-13 -11 -17 -16 -10 -11 7 5 13 5 13 1 0 -5 10 0 22 11 l22 19
-17 -25 c-23 -33 -21 -40 8 -40 26 0 33 -14 13 -26 -7 -4 -8 -3 -4 4 4 7 2 12
-3 12 -6 0 -11 -7 -11 -16 0 -12 6 -15 28 -10 22 5 24 4 10 -4 -21 -13 -24
-40 -5 -40 7 0 19 6 27 13 9 7 8 4 -1 -8 -17 -21 -22 -58 -7 -49 4 3 8 0 8 -5
0 -6 -5 -11 -12 -11 -17 0 -3 -11 19 -15 10 -1 17 -8 15 -15 -1 -6 2 -9 7 -5
6 3 18 -3 28 -14 9 -11 21 -17 26 -14 6 3 7 1 3 -5 -4 -7 -14 -12 -22 -12 -8
0 -14 -4 -14 -9 0 -5 8 -8 18 -7 12 1 17 -6 16 -22 -1 -18 1 -20 13 -11 11 10
11 15 -3 30 -10 11 -12 19 -6 19 7 0 12 -5 12 -11 0 -5 4 -8 8 -5 4 2 9 -6 10
-20 1 -13 -4 -24 -11 -24 -8 0 -7 -4 3 -10 8 -5 15 -15 15 -22 0 -8 13 -13 37
-12 30 0 35 -2 26 -13 -7 -9 -14 -10 -23 -3 -8 7 -12 6 -12 -3 0 -7 13 -14 29
-15 20 -2 27 1 22 9 -4 8 -3 9 5 5 9 -6 9 -11 -1 -24 -11 -13 -11 -15 3 -10 9
3 22 2 30 -4 11 -8 11 -9 -3 -4 -10 3 -19 2 -22 -2 -3 -4 5 -9 17 -9 12 -1 24
3 28 9 5 7 9 7 13 -1 4 -6 2 -11 -4 -11 -6 0 3 -14 20 -30 17 -17 25 -30 19
-30 -7 0 -9 -3 -5 -7 4 -5 14 1 22 11 8 11 14 14 14 7 0 -7 5 -9 12 -5 7 4 8
3 4 -5 -4 -6 -12 -9 -17 -6 -5 3 -6 -1 -3 -9 3 -9 10 -14 14 -11 5 3 13 -7 19
-22 8 -19 10 -21 7 -6 -3 15 0 20 10 16 8 -3 13 -12 12 -21 -2 -8 6 -16 17
-18 11 -2 21 -8 23 -13 4 -13 22 -15 22 -3 0 5 -11 14 -25 20 -14 6 -25 17
-25 24 0 10 3 9 9 -1 5 -8 16 -11 25 -8 9 4 15 3 14 -1 -1 -4 5 -21 15 -38 9
-17 13 -35 9 -39 -4 -5 -2 -5 5 -2 6 4 13 2 15 -5 3 -7 7 -5 11 6 4 9 3 15 -2
12 -14 -9 -23 26 -11 38 8 8 9 6 4 -8 -5 -13 -4 -17 4 -12 7 4 12 2 12 -4 0
-6 5 -8 11 -4 8 4 7 -1 -1 -17 -11 -24 -11 -24 11 1 14 15 20 18 16 8 -8 -22
15 -29 30 -9 10 13 11 14 10 1 -2 -8 -6 -20 -10 -27 -4 -6 -2 -15 4 -19 7 -4
9 -3 5 4 -3 6 -2 13 3 17 5 3 14 -3 20 -12 9 -16 10 -16 8 4 0 12 -5 19 -11
16 -5 -3 -6 -1 -2 6 4 6 12 9 17 6 13 -9 11 -53 -3 -58 -10 -4 -10 -6 0 -6 7
-1 16 7 19 17 4 9 14 24 22 32 13 13 14 13 7 -5 -5 -11 -9 -26 -9 -32 0 -7 -4
-13 -9 -13 -4 0 -8 -4 -8 -9 0 -5 8 -8 18 -6 9 1 16 9 14 16 -2 11 1 10 10 -1
18 -20 37 -23 56 -8 11 9 14 9 9 1 -6 -10 54 -12 264 -12 149 0 269 2 265 6
-3 3 3 13 15 21 16 11 18 17 8 28 -10 12 -9 13 5 8 10 -4 15 -13 12 -23 -4
-11 -2 -10 9 3 8 11 15 15 15 9 0 -12 -21 -31 -35 -31 -5 0 -11 -5 -13 -10 -1
-5 4 -9 13 -9 8 0 15 4 15 9 0 5 4 7 9 3 5 -3 12 -1 16 5 3 5 11 10 17 10 6 0
5 -7 -3 -17 -13 -15 -12 -15 9 -2 22 14 22 14 2 23 -11 5 -20 15 -20 23 0 17
5 17 24 -3 14 -13 16 -13 16 -1 0 9 -6 18 -12 20 -8 4 -7 6 4 6 9 1 19 7 22
14 3 6 3 1 0 -12 -5 -18 -3 -22 7 -15 8 5 20 9 28 11 8 1 18 8 22 15 8 12 13
4 10 -15 -1 -5 3 -6 9 -2 6 3 8 11 5 16 -4 5 -1 9 5 9 6 0 9 4 5 9 -3 5 -1 12
5 16 6 4 7 11 4 17 -4 7 0 7 12 0 11 -5 28 -7 39 -5 11 2 25 5 32 5 6 1 9 8 5
16 -4 11 -1 13 8 7 10 -6 12 -4 7 7 -3 10 0 15 11 14 9 0 16 4 15 10 -1 6 10
10 25 10 15 -1 36 3 47 8 11 6 24 9 28 8 5 -1 6 2 3 7 -4 5 -2 12 4 16 5 3 10
12 10 18 0 7 -4 6 -10 -3 -7 -10 -10 -11 -10 -2 0 19 28 26 47 11 16 -13 16
-12 0 11 -23 33 -22 48 2 21 11 -12 22 -18 25 -12 3 5 1 11 -6 13 -6 2 -12 12
-14 22 -2 17 -1 17 16 1 19 -17 19 -16 15 6 -4 23 -4 23 10 5 17 -23 20 -14 4
15 -5 11 -14 17 -20 14 -15 -10 -10 2 8 16 10 8 14 9 10 2 -10 -16 5 -24 23
-13 9 5 20 4 29 -3 11 -9 13 -9 8 0 -4 7 0 17 10 23 16 10 16 11 1 6 -12 -3
-16 1 -15 14 1 19 3 19 27 3 20 -13 23 -14 13 -1 -7 8 -9 19 -5 23 4 5 2 5 -5
1 -6 -3 -14 -2 -17 3 -4 5 2 8 11 6 10 -2 22 -4 26 -4 5 -1 5 -6 1 -13 -5 -7
-3 -8 6 -3 10 6 8 12 -9 27 -13 10 -28 15 -34 11 -6 -3 -7 -1 -3 5 5 9 15 8
36 -3 l29 -15 -9 30 c-8 28 -7 29 12 19 16 -9 19 -8 13 2 -6 9 -3 11 9 6 11
-4 15 -3 11 4 -4 6 -13 8 -21 5 -8 -3 -11 0 -7 9 3 8 10 12 16 8 6 -4 8 0 5 9
-4 8 0 15 8 15 7 0 10 -5 7 -10 -3 -6 -1 -7 5 -3 6 4 8 14 5 23 -4 10 -2 14 5
9 6 -3 13 -2 16 3 4 5 1 13 -5 17 -8 5 -9 3 -4 -6 5 -8 4 -11 -3 -6 -12 7 -5
36 8 36 5 0 11 -6 13 -12 3 -8 6 -6 6 5 1 9 -2 17 -6 17 -5 0 -8 11 -8 24 0
24 21 25 37 2 5 -8 8 -7 8 1 0 7 -7 16 -16 21 -13 7 -14 11 -4 17 7 4 16 2 22
-6 6 -10 8 -1 5 27 -3 29 0 41 9 41 10 0 11 -4 3 -14 -8 -9 -8 -13 0 -13 10 0
15 14 12 34 -1 5 5 6 14 2 10 -3 13 -2 10 5 -4 5 -16 7 -28 4 -12 -2 -16 -2
-9 1 9 4 10 10 2 19 -7 9 -6 16 5 25 8 7 12 17 8 23 -3 6 -1 7 5 3 18 -11 35
3 22 19 -7 9 -6 16 5 25 8 7 13 16 10 20 -3 5 -1 11 5 15 13 8 13 25 -1 25 -5
0 -7 -6 -3 -12 5 -9 3 -9 -9 1 -21 16 -13 31 13 26 11 -2 22 0 24 4 5 8 -9 11
-49 12 -15 0 -16 2 -6 8 8 5 28 7 45 6 17 -2 23 -1 13 1 -9 3 -14 10 -11 16 4
6 2 8 -3 5 -6 -4 -17 0 -24 9 -10 12 -10 15 1 12 10 -2 14 9 15 39 1 28 -2 40
-9 36 -6 -4 -4 2 4 13 22 29 24 30 17 12 -3 -9 0 -19 8 -22 14 -5 11 18 -6 40
-5 6 -6 14 -2 18 4 4 1 5 -7 3 -8 -2 -11 -2 -7 1 4 2 3 10 -4 18 -7 8 -9 17
-5 21 3 3 6 1 6 -6 0 -7 5 -9 12 -5 6 4 8 3 5 -3 -4 -6 -1 -13 7 -16 10 -4 12
0 9 13 -3 11 -14 22 -25 26 -12 3 -17 9 -12 13 5 3 10 14 12 25 2 13 -1 16
-10 10 -9 -6 -9 -2 2 12 22 29 24 30 17 12 -3 -9 0 -19 7 -21 21 -8 7 31 -16
47 -17 12 -17 14 -3 20 9 3 13 2 10 -4 -3 -6 1 -7 10 -4 18 7 14 14 -9 18 -19
3 -22 21 -4 21 6 0 12 8 14 17 2 16 0 16 -22 1 -20 -12 -28 -13 -37 -4 -9 10
-8 11 8 5 18 -7 19 -6 5 12 -14 18 -14 18 4 4 18 -14 18 -13 11 10 -7 23 -7
24 11 10 16 -14 16 -13 -1 11 -11 15 -23 25 -26 23 -4 -2 -9 3 -13 11 -3 8 0
17 6 21 7 4 8 3 4 -4 -4 -7 -2 -12 4 -12 7 0 10 6 7 13 -2 6 -12 10 -22 9 -17
-3 -17 -2 -4 14 12 16 12 17 -3 11 -10 -3 -20 -2 -23 4 -4 5 -1 8 6 7 6 -2 14
3 17 11 2 8 0 11 -6 7 -6 -3 -14 -1 -18 5 -4 7 -3 9 3 6 6 -4 15 5 21 18 9 20
9 23 -3 18 -8 -3 -12 -9 -9 -14 3 -5 0 -9 -5 -9 -13 0 -14 13 -4 24 12 11 11
56 -1 56 -6 0 -4 5 4 11 13 9 13 10 0 6 -8 -2 -13 -11 -12 -18 11 -43 10 -48
-6 -42 -9 4 -11 8 -5 10 9 3 9 11 1 28 -6 14 -16 21 -22 18 -6 -4 -6 0 1 9 13
15 8 28 -9 28 -5 0 -7 -4 -3 -9 3 -5 1 -12 -4 -15 -15 -10 -6 25 10 35 10 6
11 11 3 17 -9 5 -8 10 1 19 11 10 14 9 14 -5 2 -53 6 -70 13 -66 5 3 6 9 3 14
-3 5 3 13 12 19 10 5 14 13 10 17 -5 5 -12 2 -17 -6 -8 -12 -10 -10 -10 8 0
15 4 21 12 16 7 -5 9 -2 6 8 -4 8 -2 21 4 29 8 11 9 10 4 -3 -3 -10 -1 -18 5
-18 6 0 7 -5 3 -12 -4 -7 -3 -8 4 -4 6 4 8 14 5 23 -4 10 -2 14 4 10 6 -4 16
0 23 8 7 8 17 12 23 8 5 -3 7 -1 3 5 -3 5 -1 12 6 14 7 3 5 7 -6 11 -12 5 -15
3 -10 -6 6 -9 5 -9 -8 0 -8 7 -19 9 -23 5 -5 -4 -5 -2 -2 4 4 7 22 10 41 8 27
-2 34 0 30 11 -3 8 -13 11 -22 8 -18 -7 -17 -5 10 15 12 10 18 10 24 1 5 -8 3
-9 -6 -4 -8 5 -11 4 -7 -3 8 -11 32 -10 44 2 4 4 2 6 -6 4 -7 -2 -15 2 -18 9
-3 8 3 11 17 8 11 -2 18 0 15 5 -3 5 2 13 11 18 13 7 14 13 5 30 -6 11 -8 28
-4 38 5 13 3 15 -7 9 -9 -5 -11 -4 -6 4 6 9 11 9 24 -1 13 -11 14 -11 8 0 -4
7 -2 20 5 30 7 9 9 14 5 10 -5 -4 -16 -2 -25 5 -14 10 -14 10 -4 -4 10 -13 10
-16 -1 -16 -15 0 -16 14 -2 36 7 10 3 12 -15 6 -20 -6 -22 -5 -11 6 13 14 16
30 5 28 -19 -3 -33 2 -33 12 0 5 6 7 13 3 9 -5 9 -4 0 6 -7 8 -20 15 -28 16
-13 2 -14 0 -4 -14 7 -9 19 -22 27 -29 12 -10 11 -12 -6 -10 -11 0 -19 4 -17
8 3 3 -4 17 -15 29 -11 13 -20 27 -20 32 0 5 -4 6 -10 3 -5 -3 -10 -11 -10
-16 0 -6 5 -7 12 -3 7 5 8 3 3 -6 -6 -10 -11 -9 -21 5 -7 10 -11 22 -8 26 3 5
-2 6 -10 3 -9 -3 -16 -11 -16 -18 -1 -6 -8 0 -16 14 -8 14 -13 18 -10 9 3 -13
0 -15 -15 -12 -10 3 -17 9 -14 12 2 4 -2 8 -10 8 -8 0 -12 -4 -9 -9 3 -4 -2
-8 -10 -8 -9 0 -16 6 -16 13 0 8 -3 7 -10 -3 -11 -17 -51 -21 -63 -5 -5 6 -7
3 -3 -7 3 -10 1 -20 -5 -23 -5 -4 -6 -12 -2 -18 5 -9 3 -9 -8 0 -9 8 -20 9
-29 3 -10 -7 -11 -10 -2 -10 19 0 14 -27 -8 -43 -11 -8 -17 -18 -12 -23 4 -5
-2 -1 -14 9 -25 21 -41 22 -24 2 7 -9 8 -15 2 -15 -12 0 -24 29 -17 41 4 5 -1
6 -9 3 -9 -3 -14 -9 -13 -12 1 -4 -2 -7 -8 -7 -5 0 -9 3 -8 7 2 5 -1 8 -6 8
-5 0 -16 15 -25 33 -15 31 -16 31 -14 5 1 -15 6 -24 12 -21 5 3 6 1 2 -5 -4
-7 -2 -12 3 -12 6 0 11 -5 11 -12 0 -6 -9 -3 -21 8 -12 10 -23 17 -24 14 -2
-3 -7 -1 -12 4 -4 5 -3 6 4 2 14 -8 27 10 13 19 -6 4 -8 11 -5 16 4 5 -1 9
-10 9 -9 0 -13 -4 -10 -10 3 -5 3 -10 -2 -10 -13 1 -44 50 -38 60 3 6 1 10 -6
10 -7 0 -9 -9 -6 -22 6 -22 5 -22 -8 -4 -8 10 -12 23 -8 29 3 6 1 7 -5 3 -6
-4 -9 -13 -5 -21 3 -8 0 -15 -7 -15 -6 0 -9 3 -6 8 2 4 -2 18 -9 32 -14 26
-63 36 -77 16 -5 -7 -8 -7 -8 1 0 8 -7 10 -17 6 -17 -6 -17 -6 -1 10 17 18 33
23 24 9 -3 -5 1 -9 9 -9 11 0 12 4 4 14 -7 7 -19 12 -28 11 -9 -2 -15 3 -13
10 1 6 -1 11 -5 11 -20 -3 -34 2 -29 10 4 5 -2 8 -11 6 -10 -1 -29 4 -42 12
-13 8 -20 10 -17 4 4 -6 0 -11 -9 -11 -9 0 -13 -4 -10 -10 10 -16 -1 -11 -16
7 -10 11 -10 14 -1 9 6 -4 12 -3 12 3 0 5 -9 9 -20 8 -15 -1 -19 -6 -14 -22 4
-15 3 -16 -4 -6 -6 8 -15 10 -23 5 -12 -6 -12 -5 0 9 9 12 10 17 2 17 -7 0 -9
5 -5 13 5 7 1 6 -10 -3 -16 -13 -20 -12 -36 7 -10 12 -20 19 -24 16 -3 -4 -6
2 -6 12 0 18 -1 18 -15 -1 -14 -18 -16 -18 -29 -1 -10 14 -15 15 -19 5 -4 -8
-8 -9 -14 -3 -10 12 -55 16 -47 4 3 -5 0 -9 -5 -9 -6 0 -11 4 -11 9 0 4 -19 8
-42 7 -30 -1 -42 -5 -40 -14 1 -8 -2 -11 -8 -7 -6 3 -8 11 -5 16 4 5 1 9 -4 9
-6 0 -11 -8 -12 -17 0 -15 -2 -15 -7 -3 -4 8 -15 16 -26 18 -11 2 -15 -1 -11
-7 3 -6 1 -11 -4 -11 -6 0 -11 5 -11 10 0 6 -4 10 -10 10 -5 0 -10 -4 -10 -10z
m187 -35 c0 -22 -14 -18 -20 4 -3 13 0 18 7 15 7 -3 13 -11 13 -19z m101 11
c6 -4 17 -4 23 0 6 3 24 -3 40 -15 16 -12 35 -19 41 -15 7 4 8 3 4 -4 -10 -17
-33 -15 -40 4 -3 8 -10 12 -16 9 -5 -3 -10 -2 -10 3 0 15 -45 8 -52 -8 -5 -12
-7 -12 -7 3 -1 19 -16 23 -26 7 -5 -8 -11 -8 -19 -1 -7 6 -17 7 -21 3 -5 -4
-5 -1 -1 6 4 7 11 10 16 7 5 -3 11 -1 14 3 6 10 36 9 54 -2z m-384 -42 c3 -8
2 -12 -4 -9 -6 3 -10 10 -10 16 0 14 7 11 14 -7z m96 12 c0 -2 -7 -7 -16 -10
-8 -3 -12 -2 -9 4 6 10 25 14 25 6z m340 -6 c12 -7 10 -9 -8 -7 -12 0 -22 5
-22 9 0 11 12 10 30 -2z m203 -23 c4 3 9 -2 13 -11 3 -9 10 -14 14 -11 4 3 13
-2 20 -10 9 -10 9 -15 1 -15 -6 0 -11 6 -11 13 0 9 -3 8 -9 -2 -7 -11 -10 -9
-16 8 -6 19 -9 20 -23 9 -12 -10 -14 -10 -8 0 7 11 -5 17 -27 13 -5 -1 -6 3
-2 9 4 7 12 7 24 0 10 -5 21 -7 24 -3z m124 -82 c0 -8 -4 -12 -9 -9 -5 3 -6
10 -3 15 9 13 12 11 12 -6z m447 -60 c-7 -18 -20 -19 -30 -3 -4 6 -3 8 4 4 6
-3 13 -2 17 4 9 15 15 12 9 -5z m51 5 c3 -5 1 -10 -4 -10 -6 0 -11 5 -11 10 0
6 2 10 4 10 3 0 8 -4 11 -10z m-95 -10 c0 -5 -5 -10 -11 -10 -5 0 -7 5 -4 10
3 6 8 10 11 10 2 0 4 -4 4 -10z m-1023 -90 c-3 -13 0 -20 10 -20 8 0 11 -5 8
-11 -8 -12 -45 17 -45 35 0 6 5 4 10 -4 8 -13 10 -12 10 3 0 9 3 17 6 17 4 0
4 -9 1 -20z m55 1 c-3 -9 -1 -12 6 -7 6 3 14 2 17 -4 4 -6 14 -8 24 -5 9 3 26
-2 37 -11 18 -15 18 -15 -3 -5 -15 8 -24 8 -28 0 -5 -7 -14 -4 -26 7 -18 16
-19 16 -19 0 0 -9 -5 -14 -10 -11 -6 4 -8 11 -5 16 3 5 0 6 -8 3 -8 -3 -18 -1
-22 5 -4 7 1 8 12 4 15 -6 16 -4 6 8 -10 12 -8 15 6 15 12 0 17 -5 13 -15z
m-116 -21 c1 -6 2 -18 3 -27 2 -16 3 -15 10 2 5 11 6 24 3 29 -3 6 8 0 25 -12
21 -15 33 -18 41 -10 12 12 35 1 27 -12 -3 -5 0 -12 6 -16 7 -4 9 -3 6 3 -4 6
0 16 8 23 14 12 20 7 15 -15 -1 -5 7 -2 17 7 13 12 23 14 36 7 17 -10 18 -9
21 13 1 15 26 23 26 8 0 -6 -5 -8 -11 -5 -6 4 -5 -2 2 -14 8 -11 16 -16 19
-10 4 5 16 11 28 14 20 4 27 -5 23 -29 -1 -5 5 -4 13 3 12 10 16 9 25 -6 6
-11 11 -13 12 -5 1 6 2 16 3 21 0 5 5 13 10 18 6 5 6 2 1 -6 -6 -11 -4 -13 8
-8 9 3 19 1 23 -5 4 -6 3 -8 -3 -5 -6 4 -17 -1 -24 -11 -13 -15 -12 -16 3 -4
14 11 18 10 28 -5 10 -16 11 -16 6 -1 -8 25 8 30 22 7 8 -12 9 -19 1 -19 -5 0
-7 -5 -3 -11 4 -8 9 -7 15 2 4 7 3 19 -2 25 -15 18 4 24 26 8 10 -8 13 -14 7
-14 -7 0 -12 -8 -12 -17 0 -15 2 -16 10 -3 7 11 10 11 10 2 0 -7 4 -11 9 -8 4
3 19 -3 31 -14 13 -11 28 -20 33 -20 6 0 2 7 -9 15 -18 14 -17 14 8 4 22 -10
25 -15 17 -26 -9 -11 -8 -12 4 -8 10 4 17 0 21 -13 4 -10 17 -25 31 -32 20
-11 27 -11 42 1 15 11 16 11 6 -1 -17 -18 -16 -30 1 -30 8 0 13 -9 12 -23 0
-13 -6 -24 -13 -24 -7 0 -10 5 -6 10 3 5 -5 3 -18 -3 -33 -17 -38 -24 -13 -16
12 4 28 0 40 -10 18 -15 18 -15 -2 -5 -21 10 -34 6 -34 -11 0 -5 6 -6 13 -2 7
4 9 3 4 -2 -12 -12 -30 -12 -39 1 -4 5 -6 -4 -4 -21 2 -26 0 -31 -14 -27 -10
3 -21 0 -25 -7 -5 -8 -11 -7 -23 2 -15 12 -16 11 -3 -5 10 -12 17 -15 25 -7 5
5 15 10 20 10 6 0 0 -7 -12 -16 -22 -15 -32 -41 -10 -28 7 4 8 3 4 -4 -4 -6
-14 -8 -23 -5 -10 4 -14 2 -9 -5 3 -6 1 -14 -6 -18 -17 -11 -48 -13 -42 -3 2
4 -1 11 -8 15 -7 4 -10 4 -6 -1 4 -4 3 -17 -3 -28 -6 -10 -7 -17 -2 -14 5 4
10 0 10 -8 0 -11 -5 -12 -20 -3 -13 6 -17 7 -13 0 8 -13 -24 -47 -33 -35 -3 4
-13 9 -21 11 -9 1 -6 -5 8 -16 13 -10 19 -21 15 -26 -4 -4 -8 -13 -8 -19 0 -7
-7 -12 -15 -12 -8 -1 -14 -7 -12 -14 1 -7 -2 -10 -8 -6 -8 5 -8 11 1 21 6 7
15 12 19 9 5 -3 7 3 6 12 -2 9 -9 19 -17 21 -10 3 -11 1 -2 -5 10 -7 8 -13 -7
-26 -11 -9 -20 -14 -20 -11 0 4 -6 1 -13 -5 -8 -6 -16 -9 -19 -6 -9 10 -5 -30
5 -43 7 -9 6 -11 -7 -6 -13 5 -15 2 -9 -12 5 -15 4 -17 -8 -8 -20 15 -44 12
-44 -6 0 -8 -8 -14 -17 -12 -9 1 -19 -1 -22 -6 -3 -5 5 -7 17 -6 12 1 26 3 31
3 4 1 6 7 3 14 -3 8 1 14 9 14 18 0 18 -2 -8 -30 -13 -13 -30 -22 -38 -19 -13
5 -13 3 -1 -11 7 -9 18 -14 25 -10 6 3 7 2 3 -3 -5 -5 -12 -9 -15 -9 -4 0 -14
-4 -22 -10 -13 -8 -13 -7 -1 8 16 20 11 21 -23 6 -14 -7 -28 -19 -31 -27 -5
-12 -1 -12 15 3 11 10 20 13 20 8 0 -6 -7 -13 -15 -17 -8 -3 -14 -11 -13 -17
2 -6 -4 -14 -12 -16 -12 -4 -12 -3 -2 5 11 8 11 10 0 14 -8 3 -23 -1 -33 -9
-15 -12 -16 -14 -3 -10 9 3 19 0 21 -8 8 -19 -3 -26 -25 -14 -18 10 -19 9 -7
-13 12 -23 12 -23 -10 -4 -11 11 -24 16 -28 13 -3 -4 -2 -7 4 -7 6 0 13 -11
15 -25 3 -13 1 -22 -4 -19 -4 3 -11 -2 -14 -10 -3 -9 -11 -13 -17 -9 -7 4 -8
0 -3 -13 6 -15 5 -17 -5 -6 -7 6 -19 12 -27 12 -12 0 -12 -2 -1 -17 11 -13 11
-17 1 -20 -6 -3 -9 -10 -6 -15 4 -7 2 -8 -5 -4 -9 6 -9 11 0 22 8 10 8 14 0
14 -6 0 -14 -13 -17 -30 -4 -16 -11 -30 -16 -30 -5 0 -6 10 -3 23 5 17 4 19
-4 7 -10 -13 -12 -13 -21 0 -12 19 -13 4 -1 -19 9 -16 6 -17 -33 -11 -24 3
-58 6 -75 5 -24 -1 -31 3 -31 17 0 10 -7 18 -15 18 -8 0 -15 -5 -15 -11 0 -5
4 -7 10 -4 6 3 7 -1 4 -10 -5 -13 -11 -9 -26 16 -10 17 -17 34 -14 37 3 2 8
-2 12 -11 3 -9 12 -13 21 -10 13 5 12 8 -6 15 -12 4 -20 11 -17 16 2 4 0 14
-6 22 -8 12 -9 12 -4 -2 3 -10 1 -18 -4 -18 -6 0 -10 5 -10 10 0 6 -4 10 -10
10 -5 0 -7 -8 -4 -17 5 -17 5 -17 -6 0 -6 9 -15 15 -19 13 -4 -3 -8 1 -8 9 0
8 4 15 9 15 4 0 8 -5 8 -12 0 -6 2 -9 5 -6 15 15 -9 37 -36 34 -16 -2 -26 1
-23 6 3 5 12 7 20 4 20 -8 17 0 -11 28 -14 14 -25 22 -25 18 0 -5 5 -13 11
-19 8 -8 7 -13 -2 -18 -7 -5 -10 -4 -6 1 3 5 -1 18 -9 29 -13 17 -16 18 -24 5
-8 -12 -9 -10 -7 7 2 12 7 26 12 30 4 5 5 2 1 -4 -4 -7 -2 -13 4 -13 7 0 10 6
8 13 -3 6 -10 12 -17 12 -6 0 -15 6 -20 13 -5 8 -12 14 -17 15 -5 1 -9 7 -9
12 -1 20 -16 34 -30 28 -9 -3 -22 0 -30 7 -11 9 -15 9 -15 1 0 -7 -5 -9 -11
-6 -13 9 -7 15 21 20 12 2 25 7 29 11 3 4 -1 5 -10 1 -21 -7 -39 10 -32 32 3
11 1 11 -7 -3 -10 -15 -9 -20 1 -27 11 -7 11 -9 1 -9 -21 0 -37 47 -22 65 7 8
9 15 5 15 -4 0 -13 -7 -19 -15 -8 -11 -15 -12 -26 -4 -13 10 -13 10 1 6 9 -3
16 1 16 8 0 10 -7 11 -23 5 -27 -10 -37 0 -27 26 5 14 3 16 -11 11 -11 -4 -15
-3 -11 4 4 6 13 8 21 5 7 -3 16 0 20 6 4 7 3 8 -4 4 -7 -4 -12 -3 -12 3 0 6
-6 8 -14 5 -8 -3 -17 0 -22 7 -5 8 -3 10 6 4 21 -13 42 23 28 49 -10 19 -9 19
5 8 13 -11 15 -10 10 8 -4 14 -1 19 8 17 8 -2 11 -2 7 0 -5 3 -8 9 -8 14 0 6
6 7 13 3 7 -5 6 0 -3 11 -11 13 -12 19 -3 22 7 2 9 12 6 21 -3 10 -2 13 4 6 6
-7 14 -7 28 0 18 10 23 22 27 62 1 6 10 9 20 6 14 -3 17 0 12 12 -5 12 -2 15
10 10 13 -5 15 -2 9 12 -4 14 0 12 15 -6 12 -14 21 -19 22 -12 0 6 -4 12 -8
12 -4 0 -8 8 -9 18 -1 10 4 19 11 19 19 0 66 34 60 44 -3 5 2 6 10 3 9 -3 13
-11 9 -18 -4 -6 1 -5 10 3 20 16 22 37 5 45 -9 4 -8 5 2 5 29 -2 41 1 36 9
-11 18 44 5 59 -13 12 -17 14 -17 9 -2 -5 13 -2 16 12 11 16 -5 16 -4 4 5 -13
9 -12 11 5 11 15 0 17 2 6 9 -10 7 -11 13 -1 31 6 12 14 19 17 16 3 -3 0 -12
-7 -21 -7 -8 -8 -15 -3 -15 13 0 42 37 35 46 -4 4 -1 4 6 0 10 -6 10 -11 1
-22 -6 -8 -9 -17 -5 -21 3 -3 6 -1 6 5 0 7 7 12 15 12 8 0 14 3 14 8 -4 24 2
34 14 24 7 -6 22 -9 32 -7 11 2 22 4 25 4 3 1 -2 6 -10 12 -13 9 -13 10 0 6 8
-2 14 -10 13 -16 -2 -6 2 -11 8 -11 5 0 7 -5 3 -12 -5 -7 -3 -8 5 -4 7 5 10
14 7 22 -3 7 -1 16 5 20 6 4 6 12 -3 22 -10 15 -10 15 2 4 8 -7 16 -17 16 -22z
m255 -13 c-10 -9 -11 -8 -5 6 3 10 9 15 12 12 3 -3 0 -11 -7 -18z m93 -13 c3
-8 2 -12 -4 -9 -6 3 -10 10 -10 16 0 14 7 11 14 -7z m-1024 -8 c0 -3 -4 -8
-10 -11 -5 -3 -10 -1 -10 4 0 6 5 11 10 11 6 0 10 -2 10 -4z m453 -57 c-9 -9
-12 -7 -10 9 1 14 5 18 11 12 7 -7 6 -14 -1 -21z m1614 -17 c-9 -8 -28 -16
-43 -18 -14 -2 -23 0 -20 3 3 4 16 7 29 8 12 1 23 7 23 13 3 22 4 23 15 16 7
-4 6 -11 -4 -22z m-2166 -9 c-12 -20 -14 -14 -5 12 4 9 9 14 11 11 3 -2 0 -13
-6 -23z m39 3 c0 -2 -7 -7 -16 -10 -8 -3 -12 -2 -9 4 6 10 25 14 25 6z m1348
-8 c-2 -7 2 -12 9 -13 6 0 15 -4 20 -9 5 -5 3 -6 -4 -2 -7 4 -13 2 -13 -3 0
-6 5 -11 10 -11 6 0 10 -6 10 -12 0 -7 -12 0 -25 15 -14 16 -23 33 -20 38 9
13 15 11 13 -3z m-938 -20 c0 -6 -6 -5 -15 2 -8 7 -15 14 -15 16 0 2 7 1 15
-2 8 -4 15 -11 15 -16z m1610 -83 c-7 -8 -16 -12 -21 -9 -13 8 -1 24 18 24 13
0 13 -3 3 -15z m-567 -10 c-3 -9 -8 -14 -10 -11 -3 3 -2 9 2 15 9 16 15 13 8
-4z m-1604 -48 c8 -10 7 -14 -2 -14 -8 0 -14 6 -14 14 0 7 1 13 2 13 2 0 8 -6
14 -13z m1531 -37 c0 -5 -5 -10 -11 -10 -5 0 -7 5 -4 10 3 6 8 10 11 10 2 0 4
-4 4 -10z m-1236 -74 c-3 -9 -10 -16 -15 -16 -5 0 -4 9 3 20 14 22 21 20 12
-4z m1791 14 c3 -5 1 -10 -4 -10 -6 0 -11 5 -11 10 0 6 2 10 4 10 3 0 8 -4 11
-10z m-1831 -76 c3 -8 2 -12 -4 -9 -6 3 -10 10 -10 16 0 14 7 11 14 -7z m29
-9 c-7 -21 -13 -19 -13 6 0 11 4 18 10 14 5 -3 7 -12 3 -20z m1082 -24 c3 -5
2 -12 -3 -15 -5 -3 -9 1 -9 9 0 17 3 19 12 6z m-1469 -49 c1 -7 0 -8 -3 -2 -7
15 -23 12 -17 -4 3 -8 1 -17 -5 -21 -7 -4 -8 0 -4 11 4 12 3 15 -5 10 -7 -4
-12 -3 -12 3 0 21 42 24 46 3z m1911 -37 c0 -8 -4 -12 -9 -9 -5 3 -6 10 -3 15
9 13 12 11 12 -6z m-547 -20 c12 -17 12 -18 0 -7 -18 15 -34 16 -24 0 4 -7 3
-8 -5 -4 -9 6 -9 11 0 22 6 8 12 13 13 12 1 -2 8 -12 16 -23z m550 -14 c8 -2
20 -4 25 -4 6 0 12 -9 12 -19 2 -15 -3 -18 -20 -14 -12 3 -17 3 -10 0 7 -3 9
-13 6 -22 -4 -15 -3 -15 6 -2 6 8 11 11 11 6 0 -5 8 -2 18 5 14 11 15 11 5 -1
-7 -8 -13 -23 -13 -34 0 -17 -2 -18 -10 -6 -6 9 -10 10 -10 3 0 -6 4 -14 10
-18 5 -3 7 -13 4 -23 -5 -14 -4 -14 4 -2 6 8 8 18 5 24 -3 5 -1 6 5 2 8 -5 10
-2 6 8 -3 9 -1 16 6 16 6 0 8 -4 5 -10 -3 -5 0 -10 7 -11 10 0 10 -2 0 -6 -6
-2 -9 -10 -6 -15 5 -7 2 -8 -6 -3 -10 6 -12 4 -7 -8 3 -9 0 -18 -8 -21 -28
-10 15 -56 46 -49 3 1 5 -11 5 -27 0 -16 -3 -27 -8 -24 -8 5 -12 -10 -9 -33 1
-7 -3 -13 -9 -13 -6 0 -8 5 -5 10 3 6 1 10 -5 10 -7 0 -10 -7 -6 -15 3 -8 2
-15 -2 -15 -4 0 -16 -13 -27 -28 -17 -25 -17 -26 -1 -12 18 14 18 13 13 -10
-4 -14 -4 -19 -1 -12 3 6 9 10 13 7 5 -2 7 7 5 20 -1 14 2 28 8 31 15 9 23 -5
10 -18 -17 -17 -15 -33 2 -19 10 8 16 9 21 1 4 -6 1 -9 -7 -8 -7 2 -12 -3 -10
-10 1 -6 -3 -11 -9 -10 -6 2 -14 -3 -17 -11 -3 -10 0 -11 9 -5 11 6 12 5 2 -8
-7 -8 -9 -19 -5 -24 4 -4 -1 -3 -10 5 -13 9 -21 10 -35 1 -16 -10 -15 -10 5
-5 13 4 22 2 22 -4 0 -6 -7 -11 -15 -11 -8 0 -15 -4 -15 -10 0 -5 6 -7 14 -4
7 3 16 -1 19 -9 4 -11 -2 -13 -26 -11 -23 3 -28 1 -17 -5 8 -6 19 -7 25 -4 5
4 7 3 3 -2 -4 -4 -2 -15 5 -24 10 -14 10 -14 -5 -3 -14 11 -17 10 -24 -10 -3
-13 -12 -27 -18 -31 -7 -6 -4 -7 7 -3 9 3 17 1 17 -4 0 -6 -4 -10 -10 -10 -5
0 -10 -4 -10 -10 0 -5 7 -6 17 -3 11 4 14 3 9 -5 -4 -7 -15 -12 -24 -12 -9 0
-26 -7 -36 -15 -18 -14 -18 -15 -1 -42 l18 -28 -23 20 -23 20 10 -20 c14 -31
10 -50 -11 -47 -11 2 -15 -1 -11 -8 9 -15 -15 -42 -32 -36 -9 4 -11 1 -7 -6 5
-7 2 -9 -9 -5 -11 4 -14 2 -10 -8 3 -8 10 -12 17 -9 6 3 0 -4 -14 -15 -24 -20
-38 -24 -70 -22 -11 0 -11 -1 -2 -5 10 -5 10 -9 1 -20 -6 -8 -15 -11 -19 -9
-5 3 -5 -8 0 -25 8 -27 7 -29 -10 -20 -13 7 -19 6 -24 -5 -3 -8 -14 -12 -26
-10 -24 5 -25 2 -3 -16 14 -12 16 -12 8 0 -5 10 -4 12 4 7 21 -13 1 -27 -22
-15 l-22 12 20 -24 20 -23 -27 17 c-23 14 -27 14 -32 1 -4 -10 -2 -13 6 -8 7
4 8 3 4 -5 -4 -6 -12 -8 -18 -5 -7 5 -9 1 -5 -9 4 -11 2 -14 -7 -11 -8 3 -20
-3 -27 -13 -15 -21 -47 -43 -36 -26 4 6 0 14 -9 17 -12 4 -15 2 -11 -9 4 -8 2
-17 -4 -20 -5 -4 -8 -1 -7 6 2 6 -3 14 -11 17 -8 3 -11 0 -7 -7 8 -12 -20 -11
-41 2 -7 5 -17 -1 -23 -14 -7 -12 -8 -19 -3 -16 5 3 15 1 23 -5 12 -8 12 -9
-2 -4 -10 3 -20 1 -23 -5 -4 -5 -10 -7 -15 -4 -5 3 -11 1 -15 -5 -4 -6 -11 -8
-16 -5 -5 4 -9 1 -9 -5 0 -7 -6 -10 -12 -7 -7 2 -21 0 -30 -4 -11 -6 -21 -4
-30 5 -10 9 -20 11 -31 4 -11 -6 -17 -5 -17 2 0 5 5 10 10 10 6 0 10 5 10 12
0 6 -10 2 -23 -10 -19 -18 -26 -19 -37 -9 -7 6 -10 7 -7 1 4 -6 -2 -19 -12
-28 -15 -13 -18 -14 -18 -1 0 8 4 12 9 9 4 -3 5 3 1 12 -4 11 -8 13 -11 6 -2
-7 -8 -12 -13 -12 -6 0 -7 6 -3 13 5 9 4 9 -6 0 -10 -9 -18 -9 -34 -1 -12 6
-23 12 -26 12 -3 1 -4 4 -3 9 2 4 -2 7 -7 7 -9 0 -14 -14 -11 -33 1 -4 -7 -7
-16 -5 -11 2 -17 -2 -15 -10 1 -8 -2 -11 -8 -7 -8 5 -6 13 6 26 9 11 14 22 11
26 -4 3 -7 1 -7 -5 0 -7 -5 -12 -11 -12 -5 0 -8 4 -5 9 3 4 -5 8 -17 7 -15 -1
-21 -7 -19 -19 2 -9 -1 -17 -6 -17 -5 0 -9 11 -8 25 0 14 -3 24 -8 24 -5 0
-12 5 -16 11 -5 8 -9 7 -13 -4 -4 -9 -1 -15 5 -13 6 1 13 -5 15 -13 3 -10 2
-11 -4 -4 -4 6 -16 10 -25 8 -14 -2 -16 1 -8 16 8 15 6 18 -8 15 -9 -1 -24 1
-33 6 -9 5 -21 3 -27 -3 -7 -7 -15 -8 -19 -4 -4 4 -1 11 7 16 13 9 13 10 0 11
-8 1 -22 3 -30 4 -8 1 -21 3 -27 4 -7 0 -13 5 -13 10 0 5 8 8 18 6 9 -1 11 0
4 2 -7 3 -10 8 -7 13 7 11 -22 7 -32 -5 -4 -4 -2 -5 6 0 10 6 12 4 6 -4 -5 -9
-11 -9 -17 -3 -6 6 -18 8 -27 5 -13 -4 -14 -3 -1 5 8 6 18 8 23 5 5 -3 3 4 -5
16 -14 22 -33 27 -43 11 -3 -5 0 -7 8 -4 8 3 18 0 23 -7 5 -9 2 -10 -9 -6 -10
4 -17 1 -17 -6 0 -7 -5 -4 -11 6 -8 14 -14 15 -32 7 -22 -11 -22 -11 -2 5 17
13 18 17 5 25 -8 5 -19 6 -25 3 -5 -4 -6 -2 -2 3 5 5 14 9 19 9 6 0 13 7 15
15 4 13 3 13 -6 0 -9 -13 -11 -13 -11 0 0 11 -3 11 -12 2 -7 -7 -17 -12 -22
-12 -6 0 -4 5 4 10 12 8 12 10 1 10 -11 0 -11 3 -1 15 11 14 10 14 -12 6 -19
-7 -25 -6 -25 4 0 8 3 12 7 10 3 -2 12 0 20 6 11 6 6 8 -17 5 -28 -3 -31 -1
-27 20 5 27 -13 41 -29 25 -9 -9 -8 -11 5 -6 10 4 18 5 18 2 0 -14 -13 -37
-22 -37 -5 0 -7 4 -4 9 8 12 -19 33 -29 23 -5 -4 -5 -1 -1 6 4 7 12 10 17 7 5
-4 9 1 9 10 0 10 -5 13 -12 9 -7 -5 -9 -2 -5 9 4 11 2 14 -7 11 -8 -3 -17 0
-21 6 -6 9 -10 9 -16 -1 -5 -9 -7 0 -6 23 2 20 0 35 -5 32 -13 -8 -9 11 4 25
11 11 9 11 -9 2 -16 -8 -24 -8 -29 1 -4 6 -3 8 3 5 6 -4 13 -1 16 6 3 9 -4 12
-24 11 -16 -1 -29 2 -29 8 0 5 10 7 23 4 l22 -6 -22 11 c-32 17 -37 39 -10 40
l22 0 -23 10 c-13 5 -20 13 -17 19 4 6 11 7 17 4 7 -4 8 -2 4 4 -4 6 -14 9
-24 6 -12 -4 -11 0 6 14 15 14 18 22 10 25 -10 4 -9 8 2 16 13 9 13 12 1 23
-11 11 -13 11 -6 -1 5 -9 4 -12 -3 -7 -6 4 -9 -3 -8 -19 2 -13 -1 -22 -5 -19
-5 3 -9 0 -9 -6 0 -6 -5 -8 -11 -4 -8 4 -7 9 2 15 7 4 10 11 6 15 -4 4 -1 14
6 22 10 13 9 15 -5 9 -10 -4 -18 -2 -18 4 0 6 8 9 19 6 10 -2 25 -1 33 4 7 4
20 4 28 -1 11 -7 12 -10 2 -10 -7 0 -11 -4 -7 -10 3 -5 12 -7 19 -4 7 3 19 -2
26 -11 7 -8 9 -15 6 -15 -4 0 -1 -6 6 -14 7 -8 16 -12 20 -9 4 2 5 -3 2 -12
-5 -11 -2 -14 12 -9 12 3 10 -1 -6 -11 -14 -9 -17 -14 -7 -11 21 7 47 -2 47
-16 0 -6 -6 -6 -14 1 -17 15 -28 1 -15 -19 7 -12 9 -12 9 -1 0 10 3 11 14 2
11 -9 16 -9 22 0 5 8 3 9 -6 4 -8 -5 -11 -4 -6 3 4 6 14 8 23 5 11 -4 13 -8 5
-11 -9 -3 -9 -9 -1 -24 7 -12 17 -17 27 -14 10 4 6 -3 -8 -15 -22 -17 -22 -19
-3 -10 29 14 33 14 33 -4 0 -9 -6 -12 -17 -8 -10 3 -15 3 -11 -2 4 -4 18 -9
30 -10 37 -4 38 -4 38 -16 0 -5 -4 -8 -8 -5 -4 2 -14 1 -21 -3 -9 -6 -10 -11
-2 -15 6 -4 11 -2 11 4 0 6 4 9 9 5 6 -3 15 3 21 12 12 19 11 14 -7 -37 -4
-11 -2 -10 8 2 12 15 16 15 33 3 11 -8 15 -15 10 -15 -6 0 -15 5 -22 12 -9 9
-12 9 -12 0 0 -7 4 -12 8 -12 5 0 17 -7 28 -15 19 -15 19 -15 -1 -10 -16 5
-16 3 3 -6 12 -7 22 -16 22 -20 0 -5 13 -7 30 -5 28 3 37 -11 15 -26 -5 -4 -6
-10 -2 -14 3 -4 14 -1 23 7 15 12 16 11 9 -10 -6 -19 -4 -23 9 -18 8 3 18 2
20 -2 3 -5 26 -7 51 -6 25 2 45 0 45 -4 0 -4 -22 -7 -50 -6 -38 1 -47 -1 -39
-11 10 -13 26 -13 46 -1 6 4 15 2 18 -4 5 -7 16 -2 33 13 14 13 23 18 19 13
-3 -6 4 -17 16 -25 20 -12 21 -12 8 3 -7 10 -10 17 -5 18 5 0 20 2 34 5 18 3
21 2 10 -5 -8 -5 -18 -7 -24 -4 -5 3 -6 1 -2 -5 5 -9 15 -8 35 3 16 8 31 12
34 9 3 -3 8 -1 11 5 4 6 -2 8 -14 6 -11 -2 -20 0 -20 6 0 5 9 9 21 9 11 0 18
4 15 9 -3 5 5 9 19 9 14 0 22 -5 18 -11 -3 -6 -1 -7 5 -3 6 4 9 13 5 22 -4 10
-9 11 -18 4 -8 -7 -12 -6 -12 4 0 14 14 16 34 3 6 -4 15 -2 19 4 4 7 3 9 -3 6
-6 -4 -14 1 -17 10 -9 21 12 34 44 27 19 -4 21 -3 10 5 -12 8 -12 13 4 30 11
12 27 21 38 21 10 0 18 4 18 10 0 5 -6 8 -12 6 -7 -1 -10 -1 -5 1 4 3 5 8 2
12 -2 4 9 7 25 6 16 -1 28 3 27 9 -1 6 4 10 11 8 8 -1 11 2 7 8 -5 8 -11 8
-19 1 -9 -8 -13 -7 -13 4 0 7 3 14 6 13 22 -2 31 4 25 15 -5 8 -3 8 9 -2 9 -7
14 -18 10 -24 -3 -6 -1 -7 5 -3 9 5 9 13 2 26 -16 30 -12 35 11 14 22 -19 22
-19 8 4 -12 20 -12 24 1 32 8 5 15 15 15 21 0 7 10 14 23 16 15 2 21 -1 17 -8
-4 -6 -14 -8 -23 -4 -9 3 -13 3 -9 -1 4 -4 0 -15 -9 -25 -10 -11 -12 -19 -4
-24 6 -4 9 -1 8 7 -2 7 3 12 10 10 8 -1 11 2 7 8 -3 5 -2 10 3 10 21 0 50 37
47 61 -2 17 2 26 11 26 10 0 11 -4 3 -13 -6 -8 -6 -14 0 -18 13 -8 19 4 15 29
-4 29 15 48 33 33 11 -9 16 -9 24 3 14 23 10 34 -5 13 -14 -19 -15 -18 -13 3
0 12 6 21 12 20 5 -1 9 4 7 11 -1 8 2 11 7 8 5 -4 12 -2 16 4 3 5 12 10 18 10
7 0 2 -8 -10 -18 -17 -13 -20 -20 -12 -32 9 -13 10 -13 6 2 -5 15 17 34 36 29
5 -1 6 3 3 8 -4 5 -1 11 5 13 9 3 9 9 0 25 -8 17 -8 24 1 29 6 4 9 3 6 -2 -3
-5 0 -14 7 -21 10 -9 14 -8 18 8 3 10 1 17 -4 13 -5 -3 -9 -1 -9 5 0 5 5 13
10 16 6 4 8 11 4 16 -3 5 -2 8 3 7 4 -1 18 4 30 12 18 11 20 17 10 29 -9 11
-4 10 21 -3 17 -9 32 -12 32 -6 0 5 -4 10 -10 10 -5 0 -10 5 -10 10 0 14 27
12 33 -2 3 -8 6 -5 6 5 1 10 6 15 11 12 10 -6 14 8 10 35 -2 12 2 12 17 -3 16
-14 20 -14 20 -2 0 8 -4 12 -8 10 -4 -3 -10 2 -13 11 -4 9 -2 13 5 8 7 -4 9 1
5 17 -3 13 -3 18 0 10 5 -11 8 -11 16 0 6 10 7 7 3 -8 -4 -14 -2 -23 5 -23 6
0 8 5 5 10 -3 6 -2 10 3 10 11 0 9 30 -3 49 -5 10 -4 12 3 7 7 -4 12 -1 12 6
0 10 3 9 10 -2 5 -9 5 -19 -1 -26 -7 -8 -6 -14 1 -19 6 -4 9 -1 8 6 -2 6 3 14
11 17 9 3 11 0 6 -8 -6 -9 -4 -11 4 -6 9 6 8 12 -4 26 -10 11 -14 24 -9 31 5
9 10 8 19 -4 11 -15 13 -14 24 10 11 25 11 25 -6 13 -17 -13 -17 -13 -1 4 16
19 44 13 32 -6 -4 -7 -2 -8 4 -4 9 5 8 16 -4 39 -15 31 -15 32 3 12 10 -11 25
-22 33 -24z m344 15 c-10 -8 -21 -12 -24 -10 -5 6 21 24 34 24 6 0 1 -6 -10
-14z m-1701 -102 c-4 -12 -8 -13 -14 -3 -9 15 -2 32 11 24 5 -3 6 -13 3 -21z
m37 -50 c0 -2 -9 0 -20 6 -11 6 -20 13 -20 16 0 2 9 0 20 -6 11 -6 20 -13 20
-16z m1105 -47 c-11 -6 -21 -5 -28 3 -9 8 -7 9 7 4 16 -6 18 -4 13 11 -6 15
-5 16 8 5 15 -12 15 -14 0 -23z m298 6 c-7 -17 -18 -16 -33 2 -11 13 -9 15 13
13 16 -1 23 -7 20 -15z m-459 -174 c-3 -5 -10 -7 -15 -3 -5 3 -7 10 -3 15 3 5
10 7 15 3 5 -3 7 -10 3 -15z m-39 1 c-3 -5 -12 -10 -18 -10 -7 0 -6 4 3 10 19
12 23 12 15 0z m-603 -24 c7 4 8 2 4 -5 -9 -13 -26 -5 -25 12 0 9 2 8 6 -1 2
-6 10 -9 15 -6z m-922 -16 c0 -5 -5 -10 -11 -10 -5 0 -7 5 -4 10 3 6 8 10 11
10 2 0 4 -4 4 -10z m351 -27 c12 -16 12 -17 -2 -6 -9 7 -20 9 -24 5 -5 -4 -5
-1 -1 6 9 16 11 15 27 -5z m-333 -70 c0 -27 -1 -26 -16 3 -8 16 -8 21 2 21 8
0 14 -11 14 -24z m-4 -35 c5 -4 14 -4 18 -2 4 3 8 0 8 -5 0 -13 -10 -14 -30
-1 -9 5 -17 5 -21 -1 -3 -5 -6 4 -6 21 0 27 2 29 10 13 6 -10 15 -21 21 -25z
m1389 27 c9 -21 -9 -27 -24 -8 -10 12 -10 14 -1 9 6 -4 12 -2 12 3 0 16 7 13
13 -4z m882 7 c19 -13 5 -52 -18 -52 -6 0 -3 6 7 13 17 13 17 14 1 30 -16 17
-9 23 10 9z m-320 -42 c3 -5 1 -10 -4 -10 -6 0 -11 5 -11 10 0 6 2 10 4 10 3
0 8 -4 11 -10z m320 -30 c3 -6 -1 -7 -9 -4 -18 7 -21 14 -7 14 6 0 13 -4 16
-10z m-1954 -23 c-10 -9 -11 -8 -5 6 3 10 9 15 12 12 3 -3 0 -11 -7 -18z
m1613 -42 c3 3 1 -1 -4 -7 -9 -10 -13 -10 -20 2 -9 14 -14 7 -11 -13 1 -5 -3
-6 -9 -2 -8 5 -7 11 1 21 8 10 15 11 24 4 6 -5 15 -8 19 -5z m-1290 -23 c2 -4
-5 -9 -17 -9 -17 -2 -19 0 -7 7 18 12 18 12 24 2z m83 -117 c0 -22 -14 -18
-20 4 -3 13 0 18 7 15 7 -3 13 -11 13 -19z m1083 -50 c-7 -8 -17 -15 -23 -15
-6 0 -2 7 9 15 25 19 30 19 14 0z m-1666 -28 c-2 -7 4 -24 16 -37 25 -29 26
-39 2 -17 -10 10 -22 14 -26 10 -4 -4 -4 0 -1 9 4 9 1 19 -5 23 -9 6 -9 10 1
16 18 11 19 11 13 -4z m1620 1 c-3 -5 -10 -5 -16 -2 -7 5 -9 1 -5 -9 4 -11 2
-14 -9 -10 -7 3 -14 1 -14 -5 0 -6 6 -13 13 -15 9 -4 9 -6 0 -6 -21 -2 -26 20
-9 38 16 18 50 25 40 9z m-1239 -16 c-3 -3 -11 0 -18 7 -9 10 -8 11 6 5 10 -3
15 -9 12 -12z m1169 -74 c-3 -4 -9 -8 -15 -8 -5 0 -9 4 -9 8 0 5 7 9 15 9 8 0
12 -4 9 -9z m-969 -77 c3 -5 2 -12 -3 -15 -5 -3 -9 1 -9 9 0 17 3 19 12 6z
m58 -16 c-3 -9 -8 -14 -10 -11 -3 3 -2 9 2 15 9 16 15 13 8 -4z m-510 -10 c4
-8 1 -17 -6 -21 -7 -4 -9 -4 -5 1 4 4 3 14 -3 22 -7 8 -8 13 -1 13 5 0 12 -7
15 -15z m588 -12 c2 1 3 0 1 -2 -6 -11 -39 -6 -39 5 0 9 5 10 17 4 10 -5 19
-8 21 -7z m584 -3 c3 -5 1 -10 -4 -10 -6 0 -11 5 -11 10 0 6 2 10 4 10 3 0 8
-4 11 -10z m-475 -40 c0 -11 -2 -20 -4 -20 -2 0 -6 9 -9 20 -3 11 -1 20 4 20
5 0 9 -9 9 -20z m-65 1 c3 -5 2 -12 -3 -15 -5 -3 -9 1 -9 9 0 17 3 19 12 6z
m160 -8 c6 -1 18 -4 27 -6 10 -2 20 -6 24 -10 8 -7 -31 -1 -45 7 -5 4 -11 2
-13 -4 -2 -6 -9 -1 -16 11 -11 17 -11 20 0 13 7 -5 18 -10 23 -11z m180 -15
c3 -2 -9 -4 -25 -4 -17 0 -30 3 -30 7 0 8 47 6 55 -3z m606 -78 c-22 -19 -41
-19 -41 0 0 4 9 6 20 3 11 -3 20 0 20 6 0 6 6 11 13 11 6 -1 1 -9 -12 -20z
m-155 -69 c0 -11 -5 -17 -13 -14 -10 4 -11 9 -2 19 15 18 15 18 15 -5z m-113
-72 c-8 -8 -13 -7 -18 2 -5 8 -4 10 3 5 7 -4 12 -2 12 5 0 7 3 9 7 6 4 -4 2
-12 -4 -18z m-738 -32 c-17 -13 -17 -14 6 -20 13 -3 20 -9 17 -12 -3 -4 -16
-2 -27 5 -12 6 -27 8 -34 5 -6 -4 -1 3 12 14 13 12 28 21 34 21 6 0 3 -6 -8
-13z m42 -12 c0 -8 -4 -12 -9 -9 -5 3 -6 10 -3 15 9 13 12 11 12 -6z"/>
<path d="M1394 2069 c-4 -7 -3 -9 4 -5 5 3 13 0 15 -6 4 -9 6 -10 6 -1 1 17
-16 25 -25 12z"/>
<path d="M1016 2058 c3 -5 16 -7 29 -5 37 5 37 12 0 13 -19 0 -32 -3 -29 -8z"/>
<path d="M1616 2002 c-2 -4 -1 -14 3 -21 6 -10 10 -9 14 3 6 16 -8 32 -17 18z"/>
<path d="M837 1982 c-10 -10 -17 -23 -17 -28 0 -5 5 -1 11 9 6 9 14 15 18 13
4 -3 8 1 8 9 0 19 -1 19 -20 -3z"/>
<path d="M738 1908 c-13 -13 -16 -17 -6 -9 9 7 24 11 32 8 10 -4 13 -1 9 9 -7
18 -8 18 -35 -8z"/>
<path d="M670 1846 c0 -2 7 -7 16 -10 8 -3 12 -2 9 4 -6 10 -25 14 -25 6z"/>
<path d="M650 1819 c0 -5 5 -7 10 -4 6 3 10 8 10 11 0 2 -4 4 -10 4 -5 0 -10
-5 -10 -11z"/>
<path d="M1706 1782 c-3 -5 1 -9 9 -9 8 0 12 4 9 9 -3 4 -7 8 -9 8 -2 0 -6 -4
-9 -8z"/>
<path d="M575 1750 c-10 -11 -16 -20 -13 -20 3 0 15 9 28 20 13 11 19 20 13
20 -5 0 -18 -9 -28 -20z"/>
<path d="M1670 1719 c0 -5 5 -7 10 -4 6 3 10 8 10 11 0 2 -4 4 -10 4 -5 0 -10
-5 -10 -11z"/>
<path d="M1641 1684 c6 -7 16 -11 21 -8 11 7 3 17 -18 20 -12 2 -13 -1 -3 -12z"/>
<path d="M537 1563 c-4 -3 -7 -11 -7 -17 0 -6 5 -5 12 2 6 6 9 14 7 17 -3 3
-9 2 -12 -2z"/>
<path d="M1186 1235 c-11 -8 -15 -15 -10 -15 6 0 19 7 30 15 10 8 15 14 9 14
-5 0 -19 -6 -29 -14z"/>
<path d="M2040 1482 c0 -6 9 -12 20 -15 11 -3 20 -3 20 -1 0 2 -9 8 -20 14
-11 6 -20 7 -20 2z"/>
<path d="M1995 1439 c-4 -6 -4 -13 -1 -16 3 -4 6 -1 6 6 0 7 5 9 12 5 7 -4 8
-3 4 4 -9 15 -13 15 -21 1z"/>
<path d="M2055 1371 c-3 -5 -2 -12 3 -15 5 -3 9 1 9 9 0 17 -3 19 -12 6z"/>
<path d="M2096 1271 c-4 -5 3 -7 14 -4 16 4 19 2 14 -11 -3 -9 -9 -14 -13 -11
-4 2 -8 -3 -8 -11 0 -12 4 -11 20 4 11 11 16 25 13 31 -9 13 -33 14 -40 2z"/>
<path d="M1746 1228 c-20 -18 -24 -26 -15 -38 9 -13 10 -13 6 0 -2 8 3 20 12
27 21 16 34 16 25 1 -4 -7 -3 -9 1 -5 12 10 15 37 5 37 -5 0 -20 -10 -34 -22z"/>
<path d="M2060 1106 c0 -3 9 -10 20 -16 11 -6 20 -8 20 -6 0 3 -9 10 -20 16
-11 6 -20 8 -20 6z"/>
<path d="M1565 1050 c-3 -5 -1 -10 4 -10 6 0 11 5 11 10 0 6 -2 10 -4 10 -3 0
-8 -4 -11 -10z"/>
<path d="M513 1013 c-7 -3 -13 -9 -13 -15 0 -6 7 -5 16 3 14 11 15 10 12 -6
-2 -12 3 -20 12 -20 8 0 14 -9 13 -19 -1 -13 2 -15 10 -7 7 7 6 16 -6 29 -9
10 -15 21 -12 24 8 8 -17 16 -32 11z"/>
<path d="M536 898 c3 -5 10 -6 15 -3 13 9 11 12 -6 12 -8 0 -12 -4 -9 -9z"/>
<path d="M630 876 c0 -2 7 -9 15 -16 13 -11 14 -10 9 4 -5 14 -24 23 -24 12z"/>
<path d="M1974 806 c1 -8 5 -18 8 -22 4 -3 5 1 4 10 -1 8 -5 18 -8 22 -4 3 -5
-1 -4 -10z"/>
<path d="M550 781 c0 -5 7 -14 15 -21 10 -9 15 -9 15 -1 0 6 -5 11 -11 11 -5
0 -7 5 -4 10 3 6 1 10 -4 10 -6 0 -11 -4 -11 -9z"/>
<path d="M1296 767 c-17 -13 -18 -14 -2 -20 10 -4 14 -3 11 2 -3 6 3 14 12 20
10 6 13 11 7 11 -5 0 -18 -6 -28 -13z"/>
<path d="M1925 760 c-4 -6 1 -7 11 -3 13 5 15 3 9 -7 -5 -9 -4 -11 4 -6 6 4 9
12 6 17 -8 12 -22 12 -30 -1z"/>
<path d="M1236 722 c-3 -4 4 -9 15 -9 23 -2 25 3 4 10 -8 4 -16 3 -19 -1z"/>
<path d="M1890 702 c0 -6 -8 -9 -17 -6 -15 5 -16 4 -3 -5 16 -11 40 3 27 16
-4 3 -7 1 -7 -5z"/>
<path d="M841 676 c-10 -12 -8 -13 8 -9 12 3 18 9 15 14 -7 12 -10 11 -23 -5z"/>
<path d="M763 582 c-7 -4 -9 -13 -4 -21 6 -9 10 -7 14 8 3 12 4 21 4 21 -1 0
-7 -4 -14 -8z"/>
<path d="M1668 521 c5 -14 4 -14 -14 -1 -17 14 -18 14 -6 -2 9 -11 10 -18 2
-23 -5 -3 -10 0 -10 7 0 10 -3 9 -9 -2 -15 -23 -1 -33 21 -13 29 26 40 50 23
50 -8 0 -11 -7 -7 -16z"/>
<path d="M1382 437 c-7 -8 -6 -17 3 -30 9 -12 15 -15 20 -7 4 6 13 9 21 6 7
-3 16 -1 19 5 4 5 10 7 15 4 5 -3 11 -1 15 5 4 6 12 7 18 4 7 -4 4 2 -6 12
-16 17 -20 17 -30 4 -7 -9 -19 -15 -27 -15 -8 0 -18 -3 -21 -8 -4 -5 -12 -6
-18 -2 -9 5 -9 10 0 21 6 8 9 14 6 14 -2 0 -9 -6 -15 -13z m98 -1 c0 -3 -4 -8
-10 -11 -5 -3 -10 -1 -10 4 0 6 5 11 10 11 6 0 10 -2 10 -4z"/>
<path d="M1430 2440 c0 -5 5 -10 11 -10 5 0 7 5 4 10 -3 6 -8 10 -11 10 -2 0
-4 -4 -4 -10z"/>
<path d="M1500 2440 c0 -5 5 -10 11 -10 5 0 7 5 4 10 -3 6 -8 10 -11 10 -2 0
-4 -4 -4 -10z"/>
<path d="M1020 2431 c0 -6 4 -13 10 -16 6 -3 7 1 4 9 -7 18 -14 21 -14 7z"/>
<path d="M746 2318 c5 -7 2 -9 -9 -5 -11 4 -14 2 -10 -9 4 -11 9 -12 19 -3 12
10 11 29 -2 29 -3 0 -2 -5 2 -12z"/>
<path d="M1851 2284 c0 -11 3 -14 6 -6 3 7 2 16 -1 19 -3 4 -6 -2 -5 -13z"/>
<path d="M1927 2225 c3 -8 9 -12 14 -9 12 7 11 11 -5 17 -10 4 -13 1 -9 -8z"/>
<path d="M479 2165 c-1 -3 -2 -11 -3 -17 -1 -7 -10 -12 -21 -11 -11 1 -14 0
-7 -3 6 -3 9 -11 5 -17 -3 -7 3 -4 14 6 11 9 24 14 28 10 5 -5 4 -1 -3 8 -6 9
-9 19 -5 22 3 4 3 7 0 7 -4 0 -8 -2 -8 -5z"/>
<path d="M2116 2158 c3 -4 0 -8 -5 -8 -6 0 -11 -5 -11 -10 0 -7 6 -7 20 0 23
13 26 27 5 27 -8 0 -12 -4 -9 -9z"/>
<path d="M2530 2041 c0 -6 4 -13 10 -16 6 -3 7 1 4 9 -7 18 -14 21 -14 7z"/>
<path d="M305 2000 c-3 -6 1 -7 9 -4 18 7 21 14 7 14 -6 0 -13 -4 -16 -10z"/>
<path d="M135 1630 c-3 -5 -2 -10 4 -10 5 0 13 5 16 10 3 6 2 10 -4 10 -5 0
-13 -4 -16 -10z"/>
<path d="M2433 1315 c0 -8 3 -13 5 -10 3 3 12 -1 20 -8 13 -11 14 -9 1 11 -16
26 -26 28 -26 7z"/>
<path d="M2430 1158 c0 -6 3 -8 7 -5 3 4 12 -1 20 -11 13 -15 13 -15 3 6 -11
23 -30 30 -30 10z"/>
<path d="M2434 1131 c4 -6 3 -17 -3 -24 -7 -9 -5 -13 8 -13 19 0 18 31 -2 43
-6 3 -7 1 -3 -6z"/>
<path d="M2369 884 c-10 -13 6 -32 18 -20 4 3 1 6 -6 6 -7 0 -9 5 -6 10 4 6
10 8 15 5 5 -3 11 -2 14 3 8 14 -23 10 -35 -4z"/>
<path d="M135 821 c-3 -6 3 -9 14 -8 11 0 17 5 15 9 -7 11 -22 10 -29 -1z"/>
<path d="M2275 600 c-3 -5 -1 -10 4 -10 6 0 11 5 11 10 0 6 -2 10 -4 10 -3 0
-8 -4 -11 -10z"/>
<path d="M290 550 c0 -5 5 -10 11 -10 5 0 7 5 4 10 -3 6 -8 10 -11 10 -2 0 -4
-4 -4 -10z"/>
<path d="M2113 410 c1 -21 10 -18 13 5 1 8 -2 15 -6 15 -5 0 -8 -9 -7 -20z"/>
<path d="M499 331 c7 -5 9 -11 5 -13 -5 -3 -3 -3 5 -1 8 2 11 -2 8 -10 -3 -8
1 -14 8 -14 8 0 11 7 7 16 -6 18 -22 31 -37 31 -5 0 -4 -4 4 -9z"/>
<path d="M1898 253 c-8 -10 -18 -25 -22 -33 -4 -8 0 -6 9 5 9 11 21 19 26 17
6 -1 7 3 3 9 -5 9 -2 10 10 6 10 -4 15 -3 11 3 -9 15 -20 12 -37 -7z"/>
<path d="M1765 191 c-3 -5 -1 -12 4 -15 5 -3 11 1 15 9 6 16 -9 21 -19 6z"/>
<path d="M1795 179 c-4 -6 -4 -13 -1 -16 3 -4 6 -1 6 6 0 8 6 11 16 7 8 -3 12
-2 9 4 -8 13 -22 13 -30 -1z"/>
</g>
</svg>
